HIERARCHY
ROOT Hips
{
	OFFSET 0.000000 0.000000 0.000000
	CHANNELS 6 Xposition Yposition Zposition Zrotation Yrotation Xrotation 
	JOINT LHipJoint
	{
		OFFSET 0.000000 0.000000 0.000000
		CHANNELS 3 Zrotation Yrotation Xrotation
		JOINT LeftUpLeg
		{
			OFFSET 1.363060 -1.794630 0.839290
			CHANNELS 3 Zrotation Yrotation Xrotation
			JOINT LeftLeg
			{
				OFFSET 2.448110 -6.726130 0.000000
				CHANNELS 3 Zrotation Yrotation Xrotation
				JOINT LeftFoot
				{
					OFFSET 2.562200 -7.039590 0.000000
					CHANNELS 3 Zrotation Yrotation Xrotation
					JOINT LeftToeBase
					{
						OFFSET 0.157640 -0.433110 2.322550
						CHANNELS 3 Zrotation Yrotation Xrotation
						End Site
						{
							OFFSET 0.000000 0.000000 0.000000
						}
					}
				}
			}
		}
	}
	JOINT RHipJoint
	{
		OFFSET 0.000000 0.000000 0.000000
		CHANNELS 3 Zrotation Yrotation Xrotation
		JOINT RightUpLeg
		{
			OFFSET -1.305520 -1.794630 0.839290
			CHANNELS 3 Zrotation Yrotation Xrotation
			JOINT RightLeg
			{
				OFFSET -2.542530 -6.985550 0.000000
				CHANNELS 3 Zrotation Yrotation Xrotation
				JOINT RightFoot
				{
					OFFSET -2.568260 -7.056230 0.000000
					CHANNELS 3 Zrotation Yrotation Xrotation
					JOINT RightToeBase
					{
						OFFSET -0.164730 -0.452590 2.363150
						CHANNELS 3 Zrotation Yrotation Xrotation
						End Site
						{
							OFFSET 0.000000 0.000000 0.000000
						}
					}
				}
			}
		}
	}
}
MOTION
Frames: 22
Frame Time: 0.008333
-9.212401 16.845231 0.764303 -37.445936 84.105748 -12.351675 -11.961701 1.986820 -2.821444 -3.893208 6.205069 -5.998226 -0.595243 1.261459 24.778633 0.728906 3.350188 8.904447 0.788599 -0.000000 -82.412600 7.662081 -0.227309 1.773002 8.002438 7.099176 -42.926907 3.252741 -0.391243 12.262410 0.390348 1.758079 6.401657 -0.178900 0.000000 -48.417900
-9.017144 16.803830 0.767279 -42.352566 83.650795 -17.421821 -12.150491 1.898606 -2.857268 -3.057929 6.308692 -6.186867 -0.385098 1.382474 26.711675 0.830420 3.739505 9.740389 0.889400 -0.000000 -82.175500 7.467813 -0.418026 1.725195 8.675549 7.994982 -43.488890 3.135833 -0.789248 15.831942 0.268376 1.310896 5.356601 -0.290001 0.000000 -45.739600
-8.824508 16.768543 0.770384 -46.687245 83.231140 -21.924488 -12.339262 1.790611 -2.891939 -2.271065 6.369290 -6.530752 -0.167218 1.505082 28.855590 0.952613 4.223751 10.753721 1.030900 -0.000000 -80.993800 7.283240 -0.585783 1.648140 9.375900 8.728799 -43.858452 3.025628 -1.133377 19.090015 0.131661 0.821638 4.085443 -0.394400 -0.000000 -43.439200
-8.634946 16.739949 0.774466 -50.557235 82.866171 -25.961306 -12.521638 1.665720 -2.925279 -1.554401 6.392213 -7.038026 0.049088 1.626097 31.185783 1.096864 4.826527 11.886508 1.225800 -0.000000 -78.743299 7.114082 -0.729579 1.546031 10.079860 9.284976 -44.016297 2.934022 -1.416021 21.938627 -0.015018 0.310467 2.643006 -0.480200 0.000000 -41.736600
-8.448730 16.718216 0.780413 -54.051695 82.575585 -29.618863 -12.689652 1.528294 -2.956591 -0.932833 6.380123 -7.705889 0.254043 1.743128 33.666556 1.262258 5.573717 13.054507 1.488399 0.000000 -75.369900 6.966945 -0.848902 1.421135 10.760953 9.647184 -43.964562 2.868127 -1.637879 24.336913 -0.165538 -0.191207 1.083461 -0.535900 -0.000000 -40.718201
-8.265981 16.703255 0.789029 -57.249263 82.378683 -32.976437 -12.835846 1.384143 -2.985313 -0.430863 6.334851 -8.522047 0.439254 1.855382 36.252317 1.445427 6.488265 14.158835 1.831500 0.000000 -70.939500 6.848194 -0.943398 1.274936 11.390251 9.804332 -43.717984 2.829581 -1.804107 26.283527 -0.313601 -0.652489 -0.534082 -0.554601 -0.000000 -40.359100
-8.086546 16.694689 0.800846 -60.244409 82.289026 -36.127233 -12.955237 1.238894 -3.011576 -0.065842 6.257516 -9.470325 0.599655 1.963666 38.890846 1.641367 7.583825 15.102660 2.261600 -0.000000 -65.672299 6.762024 -1.013431 1.109281 11.941564 9.757516 -43.298643 2.815915 -1.921289 27.798345 -0.453374 -1.051049 -2.142236 -0.536900 0.000000 -40.555500
-7.910111 16.692043 0.816096 -63.120144 82.314501 -39.153897 -13.045263 1.098403 -3.034597 0.148982 6.146604 -10.529581 0.734240 2.069283 41.524880 1.844865 8.861993 15.808598 2.775700 0.000000 -59.938400 6.710914 -1.059913 0.927384 12.390723 9.518472 -42.734058 2.821321 -1.996767 28.919932 -0.579702 -1.373956 -3.673525 -0.489400 0.000000 -41.149399
-7.736260 16.694775 0.834717 -65.951004 82.455924 -42.128679 -13.105292 0.967649 -3.053059 0.204911 5.997348 -11.677129 0.845277 2.173118 44.097479 2.051492 10.308292 16.228341 3.358599 0.000000 -54.186500 6.695708 -1.083935 0.733409 12.718208 9.109631 -42.055094 2.837957 -2.038009 29.698703 -0.688591 -1.618930 -5.065091 -0.422700 0.000000 -41.958199
-7.564379 16.702338 0.855996 -68.848145 82.702000 -45.156508 -13.139354 0.848141 -3.064376 0.110128 5.808057 -12.897692 0.937028 2.274921 46.561621 2.256995 11.882724 16.336738 3.978801 -0.000000 -48.824100 6.711848 -1.089921 0.535547 12.918974 8.570910 -41.294585 2.858023 -2.051627 30.186305 -0.778995 -1.800849 -6.262857 -0.350199 -0.000000 -42.810701
-7.393952 16.714349 0.879084 -71.863635 83.034362 -48.286274 -13.150179 0.740885 -3.069567 -0.127144 5.582036 -14.167565 1.012962 2.374286 48.872320 2.457238 13.529420 16.125888 4.593700 -0.000000 -44.120400 6.755817 -1.080160 0.339005 12.991430 7.944777 -40.478609 2.873486 -2.044413 30.440678 -0.851292 -1.938721 -7.231253 -0.282400 0.000000 -43.575200
-7.224236 16.730402 0.902938 -75.097252 83.434309 -51.600004 -13.142128 0.645512 -3.062316 -0.494731 5.312696 -15.495656 1.076286 2.469362 51.009438 2.647354 15.176303 15.588225 5.149600 0.000000 -40.109900 6.821817 -1.059004 0.155965 12.940936 7.277959 -39.655932 2.877694 -2.022357 30.522319 -0.908637 -2.058842 -7.956032 -0.227100 0.000000 -44.159600
-7.054938 16.750414 0.926149 -78.575852 83.867649 -55.127624 -13.120702 0.558937 -3.047631 -0.962757 5.021775 -16.857237 1.128119 2.559545 52.940668 2.822011 16.741590 14.737270 5.591200 0.000000 -36.791000 6.901644 -1.031332 -0.009631 12.789592 6.619325 -38.832835 2.866971 -1.990154 30.474808 -0.955595 -2.189613 -8.438407 -0.188800 -0.000000 -44.550700
-6.885794 16.774271 0.947392 -82.328510 84.304999 -58.892992 -13.090553 0.478030 -3.025591 -1.503444 4.720317 -18.249449 1.168601 2.643723 54.650957 2.975632 18.145990 13.589235 5.868800 0.000001 -34.002900 6.987512 -1.002012 -0.152106 12.562255 6.008431 -38.028437 2.840027 -1.951595 30.338580 -0.997181 -2.353555 -8.699039 -0.168600 -0.000000 -44.768400
-6.716693 16.802047 0.965554 -86.329189 84.718925 -62.869492 -13.055034 0.399493 -2.997808 -2.088049 4.420982 -19.664710 1.196634 2.720861 56.126177 3.103333 19.322873 12.179208 5.950200 0.000000 -31.595000 7.072691 -0.975006 -0.269764 12.286597 5.472380 -37.250369 2.798219 -1.909219 30.141331 -1.037525 -2.563813 -8.769501 -0.165800 0.000000 -44.871200
-6.547638 16.833842 0.979904 -90.494910 85.091230 -66.976009 -13.014603 0.321241 -2.964682 -2.695770 4.129543 -21.095751 1.210494 2.789452 57.355440 3.202074 20.230453 10.566540 5.830800 -0.000000 -29.502200 7.153971 -0.952167 -0.364059 11.985180 5.019671 -36.502517 2.744701 -1.864781 29.902202 -1.078372 -2.818628 -8.687089 -0.178700 0.000000 -44.938400
-6.378874 16.869694 0.989834 -94.709858 85.406385 -71.104477 -12.970699 0.240186 -2.929001 -3.301050 3.856722 -22.531589 1.208213 2.848930 58.334879 3.269178 20.842030 8.808452 5.524200 -0.000001 -27.576300 7.227263 -0.936064 -0.439719 11.684481 4.649310 -35.773955 2.684623 -1.818765 29.623356 -1.120112 -3.110342 -8.484487 -0.205600 -0.000000 -45.060600
-6.210527 16.909584 0.995311 -98.838318 85.661139 -75.126328 -12.922129 0.155024 -2.891658 -3.890551 3.604982 -23.962600 1.188262 2.898151 59.063376 3.304800 21.161821 6.977726 5.069900 0.000000 -25.779100 7.292558 -0.927071 -0.502965 11.399463 4.344175 -35.054186 2.623174 -1.771330 29.301484 -1.160340 -3.418740 -8.188472 -0.244600 0.000000 -45.322000
-6.042813 16.953363 0.996575 -102.767871 85.859503 -78.938527 -12.867234 0.065093 -2.853725 -4.457223 3.375653 -25.378868 1.149795 2.936299 59.544095 3.311151 21.215687 5.142593 4.518700 0.000000 -24.071500 7.351293 -0.924814 -0.561084 11.139106 4.078736 -34.329564 2.565249 -1.722338 28.926807 -1.195107 -3.718834 -7.815770 -0.294000 0.000000 -45.791300
-5.875839 17.000627 0.994222 -106.440644 86.011369 -82.491907 -12.804137 -0.029192 -2.815953 -5.001481 3.168384 -26.770482 1.092758 2.962789 59.782982 3.292604 21.047288 3.361661 3.923500 0.000000 -22.428400 7.406281 -0.928196 -0.621232 10.904388 3.823149 -33.586592 2.514603 -1.671660 28.487984 -1.219471 -3.983545 -7.372626 -0.351900 0.000000 -46.510500
-5.709610 17.050882 0.988927 -109.864903 86.128879 -85.803179 -12.730732 -0.126314 -2.778646 -5.529187 2.981880 -28.127252 1.017761 2.977232 59.786434 3.255354 20.711839 1.679321 3.330100 0.000000 -20.846800 7.461252 -0.935699 -0.689363 10.690646 3.548579 -32.813174 2.473536 -1.619213 27.974313 -1.228491 -4.187901 -6.856632 -0.416499 0.000000 -47.490200
-5.544026 17.103423 0.981509 -113.104170 86.224995 -88.941871 -12.645039 -0.223792 -2.741756 -6.049906 2.814283 -29.439103 0.925644 2.979412 59.560144 3.206471 20.267190 0.119759 2.770700 -0.000000 -19.320300 7.520220 -0.945581 -0.769858 10.488859 3.230475 -32.001036 2.442697 -1.565196 27.379553 -1.218133 -4.312175 -6.259705 -0.485900 0.000000 -48.707100
